<svg width="156" height="29" viewBox="0 0 156 29" fill="none" xmlns="http://www.w3.org/2000/svg">
<path d="M23.678 4.76206C23.678 4.76206 23.7909 9.29219 21.0664 12.0167C18.3419 14.7412 13.8117 14.6284 13.8117 14.6284C13.8117 14.6284 13.6989 10.0982 16.4234 7.37373C19.1479 4.64922 23.678 4.76206 23.678 4.76206Z" fill="white"/>
<path d="M23.678 14.3714C23.678 14.3714 23.7909 18.9016 21.0664 21.6261C18.3419 24.3506 13.8117 24.2377 13.8117 24.2377C13.8117 24.2377 13.6989 19.7076 16.4234 16.9831C19.1479 14.2586 23.678 14.3714 23.678 14.3714Z" fill="white"/>
<path d="M2.32197 4.76206C2.32197 4.76206 2.20913 9.29219 4.93364 12.0167C7.65815 14.7412 12.1883 14.6284 12.1883 14.6284C12.1883 14.6284 12.3011 10.0982 9.57661 7.37373C6.8521 4.64922 2.32197 4.76206 2.32197 4.76206Z" fill="white"/>
<path d="M2.32197 14.3714C2.32197 14.3714 2.20913 18.9016 4.93364 21.6261C7.65815 24.3506 12.1883 24.2377 12.1883 24.2377C12.1883 24.2377 12.3011 19.7076 9.57661 16.9831C6.8521 14.2586 2.32197 14.3714 2.32197 14.3714Z" fill="white"/>
<path d="M43.511 23.288C42.167 23.288 40.879 23.112 39.647 22.76C38.415 22.392 37.423 21.92 36.671 21.344L37.991 18.416C38.711 18.928 39.559 19.352 40.535 19.688C41.527 20.008 42.527 20.168 43.535 20.168C44.303 20.168 44.919 20.096 45.383 19.952C45.863 19.792 46.215 19.576 46.439 19.304C46.663 19.032 46.775 18.72 46.775 18.368C46.775 17.92 46.599 17.568 46.247 17.312C45.895 17.04 45.431 16.824 44.855 16.664C44.279 16.488 43.639 16.328 42.935 16.184C42.247 16.024 41.551 15.832 40.847 15.608C40.159 15.384 39.527 15.096 38.951 14.744C38.375 14.392 37.903 13.928 37.535 13.352C37.183 12.776 37.007 12.04 37.007 11.144C37.007 10.184 37.263 9.312 37.775 8.528C38.303 7.728 39.087 7.096 40.127 6.632C41.183 6.152 42.503 5.912 44.087 5.912C45.143 5.912 46.183 6.04 47.207 6.296C48.231 6.536 49.135 6.904 49.919 7.4L48.719 10.352C47.935 9.904 47.151 9.576 46.367 9.368C45.583 9.144 44.815 9.032 44.063 9.032C43.311 9.032 42.695 9.12 42.215 9.296C41.735 9.472 41.391 9.704 41.183 9.992C40.975 10.264 40.871 10.584 40.871 10.952C40.871 11.384 41.047 11.736 41.399 12.008C41.751 12.264 42.215 12.472 42.791 12.632C43.367 12.792 43.999 12.952 44.687 13.112C45.391 13.272 46.087 13.456 46.775 13.664C47.479 13.872 48.119 14.152 48.695 14.504C49.271 14.856 49.735 15.32 50.087 15.896C50.455 16.472 50.639 17.2 50.639 18.08C50.639 19.024 50.375 19.888 49.847 20.672C49.319 21.456 48.527 22.088 47.471 22.568C46.431 23.048 45.111 23.288 43.511 23.288ZM57.5197 23.192C56.4477 23.192 55.4877 22.984 54.6397 22.568C53.8077 22.152 53.1597 21.52 52.6957 20.672C52.2317 19.808 51.9997 18.712 51.9997 17.384V10.088H55.7437V16.832C55.7437 17.904 55.9677 18.696 56.4157 19.208C56.8797 19.704 57.5277 19.952 58.3597 19.952C58.9357 19.952 59.4477 19.832 59.8957 19.592C60.3437 19.336 60.6957 18.952 60.9517 18.44C61.2077 17.912 61.3357 17.256 61.3357 16.472V10.088H65.0797V23H61.5277V19.448L62.1757 20.48C61.7437 21.376 61.1037 22.056 60.2557 22.52C59.4237 22.968 58.5117 23.192 57.5197 23.192ZM75.2203 23.192C74.1323 23.192 73.1803 22.952 72.3643 22.472C71.5483 21.992 70.9083 21.264 70.4443 20.288C69.9963 19.296 69.7723 18.048 69.7723 16.544C69.7723 15.024 69.9883 13.776 70.4203 12.8C70.8523 11.824 71.4763 11.096 72.2923 10.616C73.1083 10.136 74.0843 9.896 75.2203 9.896C76.4363 9.896 77.5243 10.176 78.4843 10.736C79.4603 11.28 80.2283 12.048 80.7883 13.04C81.3643 14.032 81.6523 15.2 81.6523 16.544C81.6523 17.904 81.3643 19.08 80.7883 20.072C80.2283 21.064 79.4603 21.832 78.4843 22.376C77.5243 22.92 76.4363 23.192 75.2203 23.192ZM67.5883 27.656V10.088H71.1643V12.728L71.0923 16.568L71.3323 20.384V27.656H67.5883ZM74.5723 20.12C75.1963 20.12 75.7483 19.976 76.2283 19.688C76.7243 19.4 77.1163 18.992 77.4043 18.464C77.7083 17.92 77.8603 17.28 77.8603 16.544C77.8603 15.792 77.7083 15.152 77.4043 14.624C77.1163 14.096 76.7243 13.688 76.2283 13.4C75.7483 13.112 75.1963 12.968 74.5723 12.968C73.9483 12.968 73.3883 13.112 72.8923 13.4C72.3963 13.688 72.0043 14.096 71.7163 14.624C71.4283 15.152 71.2843 15.792 71.2843 16.544C71.2843 17.28 71.4283 17.92 71.7163 18.464C72.0043 18.992 72.3963 19.4 72.8923 19.688C73.3883 19.976 73.9483 20.12 74.5723 20.12ZM89.6066 23.192C88.1346 23.192 86.8386 22.904 85.7186 22.328C84.6146 21.752 83.7586 20.968 83.1506 19.976C82.5426 18.968 82.2386 17.824 82.2386 16.544C82.2386 15.248 82.5346 14.104 83.1266 13.112C83.7346 12.104 84.5586 11.32 85.5986 10.76C86.6386 10.184 87.8146 9.896 89.1266 9.896C90.3906 9.896 91.5266 10.168 92.5346 10.712C93.5586 11.24 94.3666 12.008 94.9586 13.016C95.5506 14.008 95.8466 15.2 95.8466 16.592C95.8466 16.736 95.8386 16.904 95.8226 17.096C95.8066 17.272 95.7906 17.44 95.7746 17.6H85.2866V15.416H93.8066L92.3666 16.064C92.3666 15.392 92.2306 14.808 91.9586 14.312C91.6866 13.816 91.3106 13.432 90.8306 13.16C90.3506 12.872 89.7906 12.728 89.1506 12.728C88.5106 12.728 87.9426 12.872 87.4466 13.16C86.9666 13.432 86.5906 13.824 86.3186 14.336C86.0466 14.832 85.9106 15.424 85.9106 16.112V16.688C85.9106 17.392 86.0626 18.016 86.3666 18.56C86.6866 19.088 87.1266 19.496 87.6866 19.784C88.2626 20.056 88.9346 20.192 89.7026 20.192C90.3906 20.192 90.9906 20.088 91.5026 19.88C92.0306 19.672 92.5106 19.36 92.9426 18.944L94.9346 21.104C94.3426 21.776 93.5986 22.296 92.7026 22.664C91.8066 23.016 90.7746 23.192 89.6066 23.192ZM97.3792 23V10.088H100.955V13.736L100.451 12.68C100.835 11.768 101.451 11.08 102.299 10.616C103.147 10.136 104.179 9.896 105.395 9.896V13.352C105.235 13.336 105.091 13.328 104.963 13.328C104.835 13.312 104.699 13.304 104.555 13.304C103.531 13.304 102.699 13.6 102.059 14.192C101.435 14.768 101.123 15.672 101.123 16.904V23H97.3792ZM112.976 23.192C111.504 23.192 110.208 22.904 109.088 22.328C107.984 21.752 107.128 20.968 106.52 19.976C105.912 18.968 105.608 17.824 105.608 16.544C105.608 15.248 105.904 14.104 106.496 13.112C107.104 12.104 107.928 11.32 108.968 10.76C110.008 10.184 111.184 9.896 112.496 9.896C113.76 9.896 114.896 10.168 115.904 10.712C116.928 11.24 117.736 12.008 118.328 13.016C118.92 14.008 119.216 15.2 119.216 16.592C119.216 16.736 119.208 16.904 119.192 17.096C119.176 17.272 119.16 17.44 119.144 17.6H108.656V15.416H117.176L115.736 16.064C115.736 15.392 115.6 14.808 115.328 14.312C115.056 13.816 114.68 13.432 114.2 13.16C113.72 12.872 113.16 12.728 112.52 12.728C111.88 12.728 111.312 12.872 110.816 13.16C110.336 13.432 109.96 13.824 109.688 14.336C109.416 14.832 109.28 15.424 109.28 16.112V16.688C109.28 17.392 109.432 18.016 109.736 18.56C110.056 19.088 110.496 19.496 111.056 19.784C111.632 20.056 112.304 20.192 113.072 20.192C113.76 20.192 114.36 20.088 114.872 19.88C115.4 19.672 115.88 19.36 116.312 18.944L118.304 21.104C117.712 21.776 116.968 22.296 116.072 22.664C115.176 23.016 114.144 23.192 112.976 23.192ZM125.092 23.192C123.988 23.192 122.924 23.064 121.9 22.808C120.892 22.536 120.092 22.2 119.5 21.8L120.748 19.112C121.34 19.48 122.036 19.784 122.836 20.024C123.652 20.248 124.452 20.36 125.236 20.36C126.1 20.36 126.708 20.256 127.06 20.048C127.428 19.84 127.612 19.552 127.612 19.184C127.612 18.88 127.468 18.656 127.18 18.512C126.908 18.352 126.54 18.232 126.076 18.152C125.612 18.072 125.1 17.992 124.54 17.912C123.996 17.832 123.444 17.728 122.884 17.6C122.324 17.456 121.812 17.248 121.348 16.976C120.884 16.704 120.508 16.336 120.22 15.872C119.948 15.408 119.812 14.808 119.812 14.072C119.812 13.256 120.044 12.536 120.508 11.912C120.988 11.288 121.676 10.8 122.572 10.448C123.468 10.08 124.54 9.896 125.788 9.896C126.668 9.896 127.564 9.992 128.476 10.184C129.388 10.376 130.148 10.656 130.756 11.024L129.508 13.688C128.884 13.32 128.252 13.072 127.612 12.944C126.988 12.8 126.38 12.728 125.788 12.728C124.956 12.728 124.348 12.84 123.964 13.064C123.58 13.288 123.388 13.576 123.388 13.928C123.388 14.248 123.524 14.488 123.796 14.648C124.084 14.808 124.46 14.936 124.924 15.032C125.388 15.128 125.892 15.216 126.436 15.296C126.996 15.36 127.556 15.464 128.116 15.608C128.676 15.752 129.18 15.96 129.628 16.232C130.092 16.488 130.468 16.848 130.756 17.312C131.044 17.76 131.188 18.352 131.188 19.088C131.188 19.888 130.948 20.6 130.468 21.224C129.988 21.832 129.292 22.312 128.38 22.664C127.484 23.016 126.388 23.192 125.092 23.192ZM138.61 27.848C137.394 27.848 136.218 27.696 135.082 27.392C133.962 27.104 133.026 26.664 132.274 26.072L133.762 23.384C134.306 23.832 134.994 24.184 135.826 24.44C136.674 24.712 137.506 24.848 138.322 24.848C139.65 24.848 140.61 24.552 141.202 23.96C141.81 23.368 142.114 22.488 142.114 21.32V19.376L142.354 16.136L142.306 12.872V10.088H145.858V20.84C145.858 23.24 145.234 25.008 143.986 26.144C142.738 27.28 140.946 27.848 138.61 27.848ZM138.034 22.376C136.834 22.376 135.746 22.12 134.77 21.608C133.81 21.08 133.034 20.352 132.442 19.424C131.866 18.48 131.578 17.384 131.578 16.136C131.578 14.872 131.866 13.776 132.442 12.848C133.034 11.904 133.81 11.176 134.77 10.664C135.746 10.152 136.834 9.896 138.034 9.896C139.122 9.896 140.082 10.12 140.914 10.568C141.746 11 142.394 11.68 142.858 12.608C143.322 13.52 143.554 14.696 143.554 16.136C143.554 17.56 143.322 18.736 142.858 19.664C142.394 20.576 141.746 21.256 140.914 21.704C140.082 22.152 139.122 22.376 138.034 22.376ZM138.778 19.304C139.434 19.304 140.018 19.176 140.53 18.92C141.042 18.648 141.442 18.272 141.73 17.792C142.018 17.312 142.162 16.76 142.162 16.136C142.162 15.496 142.018 14.944 141.73 14.48C141.442 14 141.042 13.632 140.53 13.376C140.018 13.104 139.434 12.968 138.778 12.968C138.122 12.968 137.538 13.104 137.026 13.376C136.514 13.632 136.106 14 135.802 14.48C135.514 14.944 135.37 15.496 135.37 16.136C135.37 16.76 135.514 17.312 135.802 17.792C136.106 18.272 136.514 18.648 137.026 18.92C137.538 19.176 138.122 19.304 138.778 19.304ZM150.824 17.0324C150.284 17.0324 149.783 16.9352 149.323 16.7408C148.862 16.5464 148.459 16.2764 148.113 15.9308C147.767 15.578 147.497 15.1712 147.303 14.7104C147.116 14.2496 147.022 13.7528 147.022 13.22C147.022 12.6872 147.119 12.1904 147.314 11.7296C147.508 11.2688 147.778 10.8656 148.124 10.52C148.469 10.1672 148.873 9.8936 149.333 9.6992C149.801 9.5048 150.305 9.4076 150.845 9.4076C151.385 9.4076 151.886 9.5048 152.347 9.6992C152.815 9.8864 153.218 10.1528 153.556 10.4984C153.902 10.844 154.168 11.2472 154.355 11.708C154.55 12.1616 154.647 12.6584 154.647 13.1984C154.647 13.7384 154.55 14.2424 154.355 14.7104C154.161 15.1712 153.887 15.578 153.535 15.9308C153.189 16.2764 152.786 16.5464 152.325 16.7408C151.864 16.9352 151.364 17.0324 150.824 17.0324ZM150.824 16.2116C151.249 16.2116 151.637 16.136 151.99 15.9848C152.35 15.8264 152.663 15.614 152.93 15.3476C153.196 15.074 153.401 14.7536 153.545 14.3864C153.697 14.0192 153.772 13.6232 153.772 13.1984C153.772 12.7736 153.7 12.3812 153.556 12.0212C153.412 11.654 153.211 11.3372 152.951 11.0708C152.692 10.8044 152.383 10.5992 152.023 10.4552C151.67 10.304 151.277 10.2284 150.845 10.2284C150.421 10.2284 150.028 10.304 149.668 10.4552C149.308 10.6064 148.995 10.8188 148.729 11.0924C148.462 11.366 148.257 11.6864 148.113 12.0536C147.969 12.4136 147.897 12.8024 147.897 13.22C147.897 13.6376 147.969 14.03 148.113 14.3972C148.257 14.7644 148.459 15.0848 148.718 15.3584C148.984 15.6248 149.297 15.8336 149.657 15.9848C150.017 16.136 150.406 16.2116 150.824 16.2116ZM150.986 15.38C150.532 15.38 150.133 15.29 149.787 15.11C149.441 14.9228 149.168 14.6672 148.966 14.3432C148.765 14.0192 148.664 13.6448 148.664 13.22C148.664 12.7952 148.765 12.4208 148.966 12.0968C149.168 11.7728 149.441 11.5208 149.787 11.3408C150.133 11.1536 150.532 11.06 150.986 11.06C151.439 11.06 151.832 11.1608 152.163 11.3624C152.494 11.5568 152.732 11.8304 152.876 12.1832L151.709 12.8204C151.616 12.6476 151.508 12.5252 151.385 12.4532C151.263 12.3812 151.126 12.3452 150.975 12.3452C150.831 12.3452 150.698 12.3812 150.575 12.4532C150.46 12.518 150.363 12.6152 150.284 12.7448C150.212 12.8744 150.176 13.0328 150.176 13.22C150.176 13.4072 150.212 13.5656 150.284 13.6952C150.363 13.8248 150.46 13.9256 150.575 13.9976C150.698 14.0624 150.831 14.0948 150.975 14.0948C151.126 14.0948 151.263 14.0588 151.385 13.9868C151.508 13.9148 151.616 13.7924 151.709 13.6196L152.876 14.2568C152.732 14.6024 152.494 14.876 152.163 15.0776C151.832 15.2792 151.439 15.38 150.986 15.38Z" fill="white"/>
</svg>
