<svg width="19" height="12" viewBox="0 0 19 12" fill="none" xmlns="http://www.w3.org/2000/svg">
<path d="M18.9463 11C18.9463 11.5523 18.4986 12 17.9463 12H1.94629C1.394 12 0.946289 11.5523 0.946289 11C0.946289 10.4477 1.394 10 1.94629 10H17.9463C18.4986 10 18.9463 10.4477 18.9463 11ZM18.9463 6C18.9463 6.55228 18.4986 7 17.9463 7H1.94629C1.394 7 0.946289 6.55228 0.946289 6C0.946289 5.44772 1.394 5 1.94629 5H17.9463C18.4986 5 18.9463 5.44772 18.9463 6ZM18.9463 1C18.9463 1.55228 18.4986 2 17.9463 2H1.94629C1.394 2 0.946289 1.55228 0.946289 1C0.946289 0.447715 1.394 0 1.94629 0H17.9463C18.4986 0 18.9463 0.447715 18.9463 1Z" fill="black"/>
</svg>
