<svg width="24" height="24" viewBox="0 0 24 24" fill="none" xmlns="http://www.w3.org/2000/svg">
<circle cx="12" cy="12" r="11.5" stroke="#2150F5"/>
<path fill-rule="evenodd" clip-rule="evenodd" d="M15.5669 8.43306C15.811 8.67714 15.811 9.07286 15.5669 9.31694L9.31694 15.5669C9.07286 15.811 8.67714 15.811 8.43306 15.5669C8.18898 15.3229 8.18898 14.9271 8.43306 14.6831L14.6831 8.43306C14.9271 8.18898 15.3229 8.18898 15.5669 8.43306Z" fill="#2150F5"/>
<path fill-rule="evenodd" clip-rule="evenodd" d="M8.25 8.875C8.25 8.52982 8.52982 8.25 8.875 8.25H15.125C15.4702 8.25 15.75 8.52982 15.75 8.875V15.125C15.75 15.4702 15.4702 15.75 15.125 15.75C14.7798 15.75 14.5 15.4702 14.5 15.125V9.5H8.875C8.52982 9.5 8.25 9.22018 8.25 8.875Z" fill="#2150F5"/>
</svg>
