<svg width="12" height="12" viewBox="0 0 12 12" fill="none" xmlns="http://www.w3.org/2000/svg">
<path fill-rule="evenodd" clip-rule="evenodd" d="M0.666992 6.00065C0.666992 5.63246 0.965469 5.33398 1.33366 5.33398H10.667C11.0352 5.33398 11.3337 5.63246 11.3337 6.00065C11.3337 6.36884 11.0352 6.66732 10.667 6.66732H1.33366C0.965469 6.66732 0.666992 6.36884 0.666992 6.00065Z" fill="white"/>
<path fill-rule="evenodd" clip-rule="evenodd" d="M5.52925 0.862254C5.7896 0.601905 6.21171 0.601905 6.47206 0.862254L11.1387 5.52892C11.3991 5.78927 11.3991 6.21138 11.1387 6.47173L6.47206 11.1384C6.21171 11.3987 5.7896 11.3987 5.52925 11.1384C5.2689 10.878 5.2689 10.4559 5.52925 10.1956L9.72451 6.00033L5.52925 1.80506C5.2689 1.54471 5.2689 1.1226 5.52925 0.862254Z" fill="white"/>
</svg>
