<svg width="19" height="19" viewBox="0 0 19 19" fill="none" xmlns="http://www.w3.org/2000/svg">
<path d="M18.0001 16.66L15.0001 13.66C16.2964 11.9927 16.9075 9.89361 16.7087 7.79111C16.5099 5.6886 15.5162 3.74124 13.9304 2.34652C12.3445 0.951805 10.2862 0.2149 8.17554 0.286228C6.06486 0.357556 4.06098 1.23174 2.57294 2.73033C1.0849 4.22893 0.224898 6.23894 0.168488 8.35007C0.112078 10.4612 0.863512 12.5143 2.2694 14.0902C3.67529 15.6661 5.62963 16.6461 7.73348 16.83C9.83734 17.0139 11.9321 16.388 13.5901 15.08L16.5901 18.08C16.7764 18.2647 17.0278 18.3689 17.2901 18.37C17.4217 18.3707 17.5522 18.3455 17.674 18.2957C17.7959 18.246 17.9067 18.1726 18.0001 18.08C18.0938 17.987 18.1682 17.8764 18.219 17.7545C18.2698 17.6327 18.2959 17.502 18.2959 17.37C18.2959 17.238 18.2698 17.1072 18.219 16.9854C18.1682 16.8635 18.0938 16.7529 18.0001 16.66ZM3.86012 13C2.96805 12.1096 2.36017 10.9746 2.1134 9.73859C1.86663 8.5026 1.99208 7.22119 2.47385 6.05652C2.95563 4.89185 3.77208 3.89628 4.81988 3.1958C5.86768 2.49533 7.09974 2.12143 8.36012 2.12143C9.6205 2.12143 10.8526 2.49533 11.9004 3.1958C12.9482 3.89628 13.7646 4.89185 14.2464 6.05652C14.7282 7.22119 14.8536 8.5026 14.6068 9.73859C14.3601 10.9746 13.7522 12.1096 12.8601 13C11.6659 14.192 10.0475 14.8614 8.36012 14.8614C6.67278 14.8614 5.05438 14.192 3.86012 13Z" fill="#646C79"/>
</svg>
