<svg width="12" height="12" viewBox="0 0 12 12" fill="none" xmlns="http://www.w3.org/2000/svg">
<path fill-rule="evenodd" clip-rule="evenodd" d="M0.666016 5.99992C0.666016 5.63173 0.964492 5.33325 1.33268 5.33325H10.666C11.0342 5.33325 11.3327 5.63173 11.3327 5.99992C11.3327 6.36811 11.0342 6.66659 10.666 6.66659H1.33268C0.964492 6.66659 0.666016 6.36811 0.666016 5.99992Z" fill="#030F21"/>
<path fill-rule="evenodd" clip-rule="evenodd" d="M5.52729 0.861888C5.78764 0.601539 6.20975 0.601539 6.4701 0.861888L11.1368 5.52855C11.3971 5.7889 11.3971 6.21101 11.1368 6.47136L6.4701 11.138C6.20975 11.3984 5.78764 11.3984 5.52729 11.138C5.26694 10.8777 5.26694 10.4556 5.52729 10.1952L9.72256 5.99996L5.52729 1.8047C5.26694 1.54435 5.26694 1.12224 5.52729 0.861888Z" fill="#030F21"/>
</svg>
