<svg width="26" height="26" viewBox="0 0 26 26" fill="none" xmlns="http://www.w3.org/2000/svg">
<path d="M23.6778 3.26218C23.6778 3.26218 23.7906 7.79231 21.0661 10.5168C18.3416 13.2413 13.8115 13.1285 13.8115 13.1285C13.8115 13.1285 13.6986 8.59836 16.4231 5.87385C19.1477 3.14934 23.6778 3.26218 23.6778 3.26218Z" fill="#030F21"/>
<path d="M23.6778 12.8714C23.6778 12.8714 23.7906 17.4016 21.0661 20.1261C18.3416 22.8506 13.8115 22.7377 13.8115 22.7377C13.8115 22.7377 13.6986 18.2076 16.4231 15.4831C19.1477 12.7586 23.6778 12.8714 23.6778 12.8714Z" fill="#030F21"/>
<path d="M2.32148 3.26218C2.32148 3.26218 2.20864 7.79231 4.93315 10.5168C7.65766 13.2413 12.1878 13.1285 12.1878 13.1285C12.1878 13.1285 12.3006 8.59836 9.57612 5.87385C6.85161 3.14934 2.32148 3.26218 2.32148 3.26218Z" fill="#030F21"/>
<path d="M2.32148 12.8714C2.32148 12.8714 2.20864 17.4016 4.93315 20.1261C7.65766 22.8506 12.1878 22.7377 12.1878 22.7377C12.1878 22.7377 12.3006 18.2076 9.57612 15.4831C6.85161 12.7586 2.32148 12.8714 2.32148 12.8714Z" fill="#030F21"/>
</svg>
